<svg width="99" height="113" viewBox="0 0 99 113" fill="none" xmlns="http://www.w3.org/2000/svg">
<rect width="97.2419" height="111.141" fill="black" fill-opacity="0" transform="translate(1 1)"/>
<path d="M21.8661 88.5001C24.4295 86.5073 25.4519 85.0087 26.3661 81.5001C37.2458 85.0975 42.5146 85.9656 50.8661 86.0001C61.4464 85.8519 66.6299 84.8063 74.8661 81.5001C76.2882 84.9472 77.4091 86.5471 80.3661 88.5001C82.4327 88.8673 83.5203 88.8992 85.3661 88.5001C89.7777 86.428 91.8661 80.0001 91.8661 80.0001C91.8661 80.0001 93.1516 84.5345 92.8661 86.0001L92.8493 86.0351C90.0543 91.8611 88.4048 95.2994 82.8661 97.0001C78.7426 98.2661 76.1015 96.8168 71.8661 96.0001C68.8896 95.4261 67.4883 94.2955 64.3661 94.0001C63.97 96.6011 64.0182 98.1182 64.8661 101C65.7422 104.51 66.9065 105.69 70.3661 106C73.3649 104.914 75.8661 102 75.8661 102C75.8661 102 76.4237 103.814 76.3661 105C76.137 109.717 70.5754 110.644 65.8661 111C58.3857 111.566 55.1026 107.107 50.8661 99.0001C47.0953 106.047 42.8202 113.245 34.8661 112C30.1564 111.263 27.8347 109.764 24.8661 105C24.5674 103.438 24.8661 101 24.8661 101C24.8661 101 29.7322 105.716 31.3661 105C34.4181 104.378 35.3724 103.245 36.8661 101L36.8862 100.961C37.6154 99.5613 38.3248 98.1992 37.3661 94.0001C33.2996 94.994 31.4917 95.6652 28.8661 97.0001C25.3533 97.8897 23.0648 97.6588 18.8661 97.0001C13.7323 95.464 12.4978 92.7922 9.86607 88.5001C8.45739 85.266 10.3659 80 10.3659 80C10.3659 80 13.5004 89 16.5004 89C19.5004 89 19.7694 89.0777 21.8661 88.5001Z" fill="#8DBF6B" stroke="#8DBF6B"/>
<path d="M29.6025 20.5C38.7749 14.9973 42.7039 10.0269 49.6025 1C56.2413 10.8148 60.1646 15.8538 69.1025 20.5C69.1025 20.5 96.4399 34.6486 98.1025 51C100.491 74.4919 71.7056 85.6867 48.1025 85C25.4583 84.3412 -0.850081 73.5695 1.10254 51C2.50765 34.7589 29.6025 20.5 29.6025 20.5Z" fill="#F6E9D4" stroke="#F6E9D4"/>
<path d="M15.9998 52.5C16.7434 35.9562 32.9409 26.735 49.4998 26.5C66.3688 26.2605 83.2471 35.6461 83.9998 52.5C84.7795 69.9582 66.9736 81.253 49.4998 81C32.3251 80.7512 15.2285 69.659 15.9998 52.5Z" fill="white" stroke="white"/>
<path d="M27 52C27 49.2386 29.2386 47 32 47C34.7614 47 37 49.2386 37 52C37 54.7614 34.7614 57 32 57C29.2386 57 27 54.7614 27 52Z" fill="black"/>
<path d="M63 52C63 49.0972 65.5972 47 68.5 47C71.4028 47 74 49.0972 74 52C74 54.9028 71.4028 57 68.5 57C65.5972 57 63 54.9028 63 52Z" fill="black"/>
<path d="M27 52C27 49.2386 29.2386 47 32 47C34.7614 47 37 49.2386 37 52C37 54.7614 34.7614 57 32 57C29.2386 57 27 54.7614 27 52Z" stroke="black"/>
<path d="M63 52C63 49.0972 65.5972 47 68.5 47C71.4028 47 74 49.0972 74 52C74 54.9028 71.4028 57 68.5 57C65.5972 57 63 54.9028 63 52Z" stroke="black"/>
<path d="M44.0004 59C46.3696 59.6662 47.6844 59.6002 50.0004 59C52.2963 59.6709 53.59 59.9356 56.0004 59C56.0004 59 56.6737 75 50.0004 75C43.3271 75 44.0004 59 44.0004 59Z" fill="#FF57B0"/>
<path d="M50.0004 59L50.1407 58.5201L50.0084 58.4814L49.875 58.516L50.0004 59ZM44.0004 59L44.1358 58.5187L43.5274 58.3476L43.5009 58.979L44.0004 59ZM56.0004 59L56.5 58.979L56.4706 58.2812L55.8195 58.5339L56.0004 59ZM49.875 58.516C48.7328 58.812 47.8706 58.9672 47.0158 58.9749C46.164 58.9826 45.2923 58.8439 44.1358 58.5187L43.8651 59.4813C45.0777 59.8223 46.048 59.9837 47.0249 59.9749C47.9988 59.9661 48.952 59.7882 50.1259 59.484L49.875 58.516ZM44.0004 59C43.5009 58.979 43.5009 58.9791 43.5009 58.9794C43.5008 58.9795 43.5008 58.9798 43.5008 58.9801C43.5008 58.9807 43.5008 58.9816 43.5007 58.9827C43.5006 58.9849 43.5005 58.9881 43.5003 58.9922C43.5 59.0005 43.4996 59.0125 43.499 59.0282C43.4979 59.0597 43.4964 59.1058 43.4947 59.1656C43.4913 59.2853 43.4873 59.4598 43.4846 59.6814C43.4791 60.1244 43.4789 60.7561 43.4997 61.5137C43.5412 63.0269 43.6667 65.0515 44.0047 67.0821C44.3413 69.1039 44.8951 71.1742 45.8158 72.752C46.7418 74.3389 48.0887 75.5 50.0004 75.5V74.5C48.5755 74.5 47.5041 73.6611 46.6795 72.248C45.8496 70.8258 45.3204 68.8961 44.9912 66.9179C44.6633 64.9485 44.5401 62.9731 44.4993 61.4863C44.4789 60.7439 44.4792 60.1256 44.4845 59.6936C44.4871 59.4777 44.4911 59.3085 44.4943 59.1938C44.4959 59.1364 44.4974 59.0927 44.4984 59.0636C44.4989 59.049 44.4993 59.0381 44.4996 59.031C44.4997 59.0274 44.4998 59.0248 44.4999 59.0231C44.4999 59.0223 44.5 59.0217 44.5 59.0213C44.5 59.0212 44.5 59.0211 44.5 59.021C44.5 59.021 44.5 59.021 44.0004 59ZM50.0004 75.5C51.9122 75.5 53.2591 74.3389 54.1851 72.752C55.1058 71.1742 55.6596 69.1039 55.9961 67.0821C56.3341 65.0515 56.4597 63.0269 56.5012 61.5137C56.522 60.7561 56.5217 60.1244 56.5163 59.6814C56.5136 59.4598 56.5095 59.2853 56.5062 59.1656C56.5045 59.1058 56.503 59.0597 56.5018 59.0282C56.5013 59.0125 56.5008 59.0005 56.5005 58.9922C56.5004 58.9881 56.5002 58.9849 56.5001 58.9827C56.5001 58.9816 56.5001 58.9807 56.5 58.9801C56.5 58.9798 56.5 58.9795 56.5 58.9794C56.5 58.9791 56.5 58.979 56.0004 59C55.5009 59.021 55.5009 59.021 55.5009 59.021C55.5009 59.0211 55.5009 59.0212 55.5009 59.0213C55.5009 59.0217 55.5009 59.0223 55.501 59.0231C55.501 59.0248 55.5011 59.0274 55.5013 59.031C55.5015 59.0381 55.502 59.049 55.5025 59.0636C55.5035 59.0927 55.5049 59.1364 55.5066 59.1938C55.5098 59.3085 55.5137 59.4777 55.5164 59.6936C55.5217 60.1256 55.5219 60.7439 55.5015 61.4863C55.4608 62.9731 55.3375 64.9485 55.0097 66.9179C54.6804 68.8961 54.1513 70.8258 53.3214 72.248C52.4968 73.6611 51.4253 74.5 50.0004 74.5V75.5ZM55.8195 58.5339C54.6611 58.9835 53.8036 59.1328 52.9756 59.1028C52.1334 59.0722 51.2907 58.8561 50.1407 58.5201L49.8602 59.4799C51.0061 59.8148 51.9581 60.0665 52.9394 60.1021C53.9348 60.1382 54.9294 59.9521 56.1813 59.4661L55.8195 58.5339Z" fill="#FF57B0"/>
<path d="M19 60.5C19 58.1165 21.6165 57 24 57C26.3835 57 29 58.1165 29 60.5C29 62.8834 26.3835 64 24 64C21.6165 64 19 62.8834 19 60.5Z" fill="#FF57B0"/>
<path d="M71 60.5C71 57.9541 73.9654 56.7602 76.5 57C78.7164 57.2096 81 58.2736 81 60.5C81 62.7263 78.7164 63.7903 76.5 64C73.9654 64.2397 71 63.0459 71 60.5Z" fill="#FF57B0"/>
<path d="M19 60.5C19 58.1165 21.6165 57 24 57C26.3835 57 29 58.1165 29 60.5C29 62.8834 26.3835 64 24 64C21.6165 64 19 62.8834 19 60.5Z" stroke="#FF57B0"/>
<path d="M71 60.5C71 57.9541 73.9654 56.7602 76.5 57C78.7164 57.2096 81 58.2736 81 60.5C81 62.7263 78.7164 63.7903 76.5 64C73.9654 64.2397 71 63.0459 71 60.5Z" stroke="#FF57B0"/>
</svg>
